<?xml version="1.0" encoding="UTF-8"?>
<svg xmlns="http://www.w3.org/2000/svg" version="1.1" xmlns:xlink="http://www.w3.org/1999/xlink" viewBox="0 0 590 444.5">
  <!-- Generator: Adobe Illustrator 29.3.1, SVG Export Plug-In . SVG Version: 2.1.0 Build 151)  -->
  <defs>
    <style>
      .st0 {
        fill: url(#Degradado_sin_nombre_43);
      }

      .st0, .st1, .st2, .st3, .st4, .st5, .st6, .st7 {
        mix-blend-mode: multiply;
      }

      .st8, .st6 {
        fill: #f7e69a;
      }

      .st1 {
        fill: url(#Degradado_sin_nombre_44);
      }

      .st2 {
        fill: url(#Degradado_sin_nombre_42);
      }

      .st9 {
        isolation: isolate;
      }

      .st10, .st7 {
        fill: #9d2d2c;
      }

      .st3 {
        fill: url(#Degradado_sin_nombre_4);
      }

      .st4 {
        fill: url(#Degradado_sin_nombre_45);
      }

      .st5 {
        fill: url(#Degradado_sin_nombre_41);
      }

      .st11 {
        fill: #de7d2a;
      }

      .st12 {
        fill: #bdb847;
      }
    </style>
    <linearGradient id="Degradado_sin_nombre_4" data-name="Degradado sin nombre 4" x1="330.9" y1="296.2" x2="257" y2="348.7" gradientUnits="userSpaceOnUse">
      <stop offset="0" stop-color="#bdb847"/>
      <stop offset="1" stop-color="#fff"/>
    </linearGradient>
    <linearGradient id="Degradado_sin_nombre_41" data-name="Degradado sin nombre 4" x1="421.4" y1="385.9" x2="329.1" y2="451.5" xlink:href="#Degradado_sin_nombre_4"/>
    <linearGradient id="Degradado_sin_nombre_42" data-name="Degradado sin nombre 4" x1="551.7" y1="294.6" x2="526.7" y2="312.3" xlink:href="#Degradado_sin_nombre_4"/>
    <linearGradient id="Degradado_sin_nombre_43" data-name="Degradado sin nombre 4" x1="511.2" y1="295.7" x2="483" y2="315.7" xlink:href="#Degradado_sin_nombre_4"/>
    <linearGradient id="Degradado_sin_nombre_44" data-name="Degradado sin nombre 4" x1="143.3" y1="287.6" x2="63" y2="323.3" xlink:href="#Degradado_sin_nombre_4"/>
    <linearGradient id="Degradado_sin_nombre_45" data-name="Degradado sin nombre 4" x1="208.5" y1="338" x2="110.4" y2="407.8" xlink:href="#Degradado_sin_nombre_4"/>
  </defs>
  <g class="st9">
    <g id="Capa_2">
      <path class="st11" d="M13.5,19.1c-4.5,0-9.1.2-13.5.5v361.6c4.5.3,9,.5,13.5.5,100.1,0,181.3-81.2,181.3-181.3S113.7,19.1,13.5,19.1Z"/>
      <path class="st12" d="M579.6,242.4c-5.3.1-8.5,2.8-18.6,4-10.2,1.2-20.7.8-25.6,2.2-4.9,1.4-2.2,3.3-5.9,2.8-3.6-.6-6.2,2.8-8.5,3.5-2.3.7-7.2.2-7.2.2-2,0-2.4-3.9-5.6-2.8-3.3,1.1-25.2-8.3-27.2-9.6-2-1.3-7.6-4.1-11-5-3.3-.9-13.9-4.3-20.2-8.4-6.3-4.1-13.9-4-17.5-3.9-3.6,0-4.2,1.4-7.8,2.1-3.6.7-8.5-.1-10.9-.4-2.3-.3-8.5,3.1-11.8,3.2-3.3,0-17.1-.6-21.4-2.2-4.3-1.5-16.9-4.9-23.4-4.4-6.6.5-25.7-2.7-29-3.8-3.3-1-21.4-3.3-21.4-3.3-1.6,0-7.9-1.5-15.2-4.3-7.3-2.8-26-1.4-29.3-3-3.3-1.6-13.5-2.7-18.2-4.2-4.6-1.5-12.8-.4-16.1-.3-3.3,0-4.2,3-7.1,3.8-2.9.7-5-1.2-9.9-.8-4.9.4-5.2,2.7-7.8,2.8-2.6,0-2.3,1.4-8.5.5-6.3-.9-20.6,4.1-22.9,3.5-2.3-.6-12.8.6-22.3,1.5-9.5.9-25.6,2.9-30.8,2.3-5.3-.5-14.1.3-19.1-1.2-5-1.5-23.6,1.5-25.9.6-2.3-.9-7.8-4.7-7.8-4.7-1.5,0-4.9-.6-8-1.5-3.2-.9-4.4-2.8-9.3-3.5-4.9-.6-8.5,0-13.4-.2-4.9-.1-18.4,3.8-22.5,4-2.1.1-7.5.6-12.4.8v231.8h590v-202.4c-4.5,0-8.5.2-10.4.3Z"/>
      <g>
        <polygon class="st3" points="330.2 318.5 192 349 238.3 377.8 359.2 322.1 330.2 318.5"/>
        <polygon class="st5" points="371.5 417.4 242.8 444.5 407.1 444.5 461.8 425.5 371.5 417.4"/>
        <polygon class="st2" points="546.4 302.3 504.2 311.6 524.3 319.5 561.7 304 546.4 302.3"/>
        <polygon class="st0" points="499.8 305.7 457.7 315 477.8 322.8 522.5 306.4 499.8 305.7"/>
        <g>
          <path class="st8" d="M469.2,345.1c0,1.3.6,8.6-1,15.4-1.7,6.8-3.2,13.9-3.5,15.3-.3,1.4-.1,3.7.2,5,.3,1.2,1.6,9.8.7,15.9-.9,6-2.2,15.8-2.3,17.5,0,1.6-1.4,11.4-1.4,11.4,0,0-15.5,4.2-34.5,5.2-18.9,1-41.3-1-55.7-13.3,0,0,1.1-11.8,1.4-15.7.3-4,.5-7.8,0-11.6-.5-3.8-.3-7.4-.1-8.2.1-.8-.2-5.2-.4-5.6-.2-.4-.4-9.4-.4-12.5s0-12.9.4-15.1c.4-2.2.6-9.4.8-10.9.3-1.4-.7-4.9,0-7.8.7-2.9,1.1-5.8,1.1-6.6,0-.9,0-7.3,0-8.8s-.6-12.1-.4-15.5c.2-3.5.5-7.7.5-8,0-.3,0-10.9.9-15.6.9-4.7,1.7-11.6,1.7-12.6s.9-3.9,1-5.4c.1-1.5-.5-6.5,0-7.7.5-1.1,1-1.4,1-2.8s0-4.5.4-6.1c.5-1.6.9-3.9,1.1-4.6.3-.7,1.4-4.3,1.6-6.4.1-2.1.1-5.7.6-7.3.4-1.6,1.6-4.3,2.2-6.4.6-2.1,1-4.3,1.5-6.3.5-1.9,1.4-4.1,2.5-6,1.1-1.9,2-3.7,2-5.3s.5-1.8.5-3-.1-2.9,0-3.7c.2-.8.6-.6.4-2.3-.3-1.6-.4-2.6-.4-2.9s-.3-3.6.5-4.7c.8-1.1.8-2.8,1.1-4,.2-1.1-.3-3.4,0-4.4.3-1-.2-4-.5-5.8-.3-1.9-.4-7.7-.3-8.7.1-1,.2-1.9.2-3.4s0-5,.3-6.2c.3-1.2,1.4-7.1,1.5-8.3,0-1.1.5-5,.6-6.5.2-1.5,1.2-11.9,1.4-13.2.2-1.3,1-6.4,1.7-7.8.6-1.4,1.7-10.1,1.9-10.9.2-.7,4.7-17,5-17.9.4-.9,1.6-5.6,1.9-6.3.4-.7,1.7-5.7,2.5-7.5.9-1.8,9-14,9.5-14.7.5-.7,6-5.4,8.3-6,2.4-.6,8.1-1.4,9-1.8.3-.2,2.6-1.5,5.7-2.9,5.3-2.6,12.8-5.7,16.1-4.1,0,0,6.2,6.6,6.3,12.6,0,6-.5,7,0,8.8.5,1.8-1.9,12.4-1.3,14,.6,1.7,1.6,3,2.4,3.8.9.9,2.2,5,1.6,14.9-.6,9.8-1.7,11.4-1.3,12.3.4.9,1,1.9.8,3.1-.2,1.2-3.1,13-3.1,14.3s0,3.4-.4,4.8c-.4,1.4-2.6,15.4-2.7,15.7-.1.3-4,21.4-3.5,26.2.6,4.8.5,8.7.9,10.1.4,1.5,1.1,7.2,1.5,9,.4,1.8.2,4,0,6.8-.1,2.9,1.1,6.9,1.7,9.4.6,2.5,2.3,6.3,2.7,9.3.4,3,.5,5.2.7,6.6.2,1.4,1.2,1.7.8,4.7-.4,3.1.6,10.8-.1,14.7-.8,3.9-1.6,11.1-1.3,14.5.3,3.3-.1,10.9.1,12.2.3,1.2,1,2.7.6,4.1-.4,1.4-.4,5.4-.4,6.5s.4,3.6.9,4.7c.5,1.1.9,1.2,1.1,5,.2,3.8,2.4,12.8,2.6,16,.3,3.2.9,21.5.8,28.2-.2,6.7-.3,10.1-.4,11.4Z"/>
          <path class="st6" d="M426.9,231.2c5.2,35.6,19.8,6.4,7.2,39.1-12.6,32.7-12.6,24.9-12.6,32.7s-2.1,10,0,14.2c2.1,4.3,2.8,5.7,5,10.7,2.1,5,5.3,1.4,5.1,9.3-.2,7.8.2,5,0,13.5-.2,8.5-4.8,12.1,0,23.5,4.8,11.4,3,27.8,0,40.6-3,12.6-2.3,10.4-4.4,16-18.9,1-41.3-1-55.7-13.3,0,0,1.1-11.8,1.4-15.7.3-4,.5-7.8,0-11.6-.5-3.8-.3-7.4-.1-8.2.1-.8-.2-5.2-.4-5.6-.2-.4-.4-9.4-.4-12.5s0-12.9.4-15.1c.4-2.2.6-9.4.8-10.9.3-1.4-.7-4.9,0-7.8.7-2.9,1.1-5.8,1.1-6.6,0-.9,0-7.3,0-8.8s-.6-12.1-.4-15.5c.2-3.5.5-7.7.5-8,0-.3,0-10.9.9-15.6.9-4.7,1.7-11.6,1.7-12.6s.9-3.9,1-5.4c.1-1.5-.5-6.5,0-7.7.5-1.1,1-1.4,1-2.8s0-4.5.4-6.1c.5-1.6.9-3.9,1.1-4.6.3-.7,1.4-4.3,1.6-6.4.1-2.1.1-5.7.6-7.3.4-1.6,1.6-4.3,2.2-6.4.6-2.1,1-4.3,1.5-6.3.5-1.9,1.4-4.1,2.5-6,1.1-1.9,2-3.7,2-5.3s.5-1.8.5-3-.1-2.9,0-3.7c.2-.8.6-.6.4-2.3-.3-1.6-.4-2.6-.4-2.9s-.3-3.6.5-4.7c.8-1.1.8-2.8,1.1-4,.2-1.1-.3-3.4,0-4.4.3-1-.2-4-.5-5.8-.3-1.9-.4-7.7-.3-8.7.1-1,.2-1.9.2-3.4s0-5,.3-6.2c.3-1.2,1.4-7.1,1.5-8.3,0-1.1.5-5,.6-6.5.2-1.5,1.2-11.9,1.4-13.2.2-1.3,1-6.4,1.7-7.8.6-1.4,1.7-10.1,1.9-10.9.2-.7,4.7-17,5-17.9.4-.9,1.6-5.6,1.9-6.3.4-.7,1.7-5.7,2.5-7.5.9-1.8,9-14,9.5-14.7.5-.7,6-5.4,8.3-6,2.4-.6,8.1-1.4,9-1.8.3-.2,2.6-1.5,5.7-2.9,0,0-6.8,8.7-8.2,16.7-1.4,8.1,2.1-3.6,0,13.3-2.1,16.9,5,2.8-.4,21.9-5.3,19.1-8.9,22.4-3.9,31.8,5,9.4,5.7,8.7,8.5,24.4,2.8,15.7,6.5,23.5,4,33.5-2.5,10,1,5.7-4,18.5-5,12.8-16.2-10-10.9,25.6Z"/>
        </g>
        <g>
          <path class="st8" d="M367.8,187.8c-.2.9-1,4-.8,6.9.2,2.9,0,1.6,0,2.5,0,.9,0,2.9,0,3.4,0,.5-.3,2.3-.1,2.8s1.1,3.2.1,5.7c0,0,.7,1,.4,2-.3,1-.5,2.7-.4,3.5.2.8.2,3.1-.4,5-.6,1.9-.1,3.2,0,3.9.2.7,1,2.6.4,5.5-.6,2.9-1,5.3-.8,6.6.2,1.3.5,1.9.8,2.9.2,1,.4,7.4.2,10.1-.2,2.7-.6,6.9-.6,6.9,0,0-1.1,9.6-2.3,14.2-1.1,4.6-2.7,9.2-2.7,13.4s-.4,15-.9,18.1c-.5,3.1-1.5,9.8-1,12.2.6,2.4-.8,8.9-.8,8.9,0,0-4.7,1.1-10.2.6-.5,0-.9,0-1.5-.1-5.7-.5-14.8-1.6-15.4-2.4-.7-.9-2.4-.2-2.4-4.5,0,0-2.9-13.4-3.2-18.2-.3-4.8-1.2-16.1-1.2-18.3,0-2.2-.9-11.5-.6-13.5.3-2,1.5-6.4,1.8-8,.3-1.5.8-8.3,1.1-9.5.3-1.3.3-5.1,1.1-7,.8-1.9.9-5.8,1.1-7.2.2-1.4-.5-4.3-.5-6s.8-4.8.5-5.1c-.3-.3-.8-3.5-.8-5s0-4.7,0-5.1,0-.4.1-1.4c0-1-.2-1.9-.2-2.7s0-3.8,0-4.2c0-.4,0-2.7,0-3,0-.3.3-3.7.4-4.2,0-.5.6-3.3.8-3.5.2-.2.7-1.4.8-1.7,0-.3.3-1.1.7-1.4.4-.3.6-.9.7-1.2,0-.3-.4-2.7.1-3.5.5-.8.7-1.2.6-1.7,0-.5-.3-1.8-.1-2.6.2-.8.5-2.8.5-3.4,0-.6.9-3.6,2-4.2,1.2-.6,2.2-1,2.5-1.4.4-.4.6-.6.7-.9,0-.3,2-1.6,3-1.8,1-.2,3-.3,4.1,0,0,0,.1,0,.2,0,1.1.4,1.9.9,2.8,1.2,1,.3,3.9.6,4.6.3.8-.2,1.7-1.3,2.9-1.4,1.3,0,2.9-.2,3.7-.2s1.9,0,2.6.4c.7.4,1.3.4,2.2.9.9.5.8.9,1,1.9.2,1,.6,3.4.9,4.6.3,1.2.4,2.3.4,2.7,0,.5.3.6.2,1.6-.1,1-.3,1.3-.1,2.4.2,1.1.8,2.2.6,3.1Z"/>
          <path class="st6" d="M351.4,224.2c-5.7,6.6-10.8,14.4-10.5,15.3.4.9,6.6,10.3,6.6,10.3,0,0-1.4,4.5,0,6.8,1.4,2.3,2.1,4.3,2.8,5.9.7,1.6,1.1.7.9,3.7-.2,3-.4,4.5-.5,5.7-.2,1.3-2.8,24-3.2,28.6-.4,4.6.9,8,.9,10.1s-.9,11.8-.9,11.8c-5.7-.5-14.8-1.6-15.4-2.4-.7-.9-2.4-.2-2.4-4.5,0,0-2.9-13.4-3.2-18.2-.3-4.8-1.2-16.1-1.2-18.3,0-2.2-.9-11.5-.6-13.5.3-2,1.5-6.4,1.8-8,.3-1.5.8-8.3,1.1-9.5.3-1.3.3-5.1,1.1-7,.8-1.9.9-5.8,1.1-7.2.2-1.4-.5-4.3-.5-6s.8-4.8.5-5.1c-.3-.3-.8-3.5-.8-5s0-4.7,0-5.1,0-.4.1-1.4c0-1-.2-1.9-.2-2.7s0-3.8,0-4.2c0-.4,0-2.7,0-3,0-.3.3-3.7.4-4.2,0-.5.6-3.3.8-3.5.2-.2.7-1.4.8-1.7,0-.3.3-1.1.7-1.4.4-.3.6-.9.7-1.2,0-.3-.4-2.7.1-3.5.5-.8.7-1.2.6-1.7,0-.5-.3-1.8-.1-2.6.2-.8.5-2.8.5-3.4,0-.6.9-3.6,2-4.2,1.2-.6,2.2-1,2.5-1.4.4-.4.6-.6.7-.9,0-.3,2-1.6,3-1.8,1-.2,3-.3,4.1,0,0,0,.1,0,.2,0-.4,1.9-.7,4.2-.5,6.5.5,5.7,1.2,8.5,2.1,10.9q.9,2.3.9,5.5c0,3.2.7-1.1,0,4.3-.7,5.3-2.6,3.2-1.4,7.1,1.2,3.9,1.9,4.3,2.6,5.3.7,1.1.5-2,1.6,3.9,1.1,5.9,5.9,3.9.2,10.5Z"/>
        </g>
        <g>
          <path class="st8" d="M522.5,306.4s-2.6,1.1-4.6,1.6h0c-.6.2-1.1.3-1.5.3-2,.1-3.3.5-5.9,0-2.6-.5-5.8-.7-7.2-1.3-1.4-.5-3.9-1.1-3.9-1.1,0,0,0-10.8,1.3-15.1,1.2-4.3,3.7-10.2,4.2-11.2.5-1,2-4.6,2.9-5.7s1.2-3.1,2.7-2.7c0,0,.7-.8,1.6-1.3.6-.4,1.3-.6,2-.5,1.8.3,1.8.3,2.9,1.4,1.1,1.1,2.3,2.3,2.8,2.9.5.6,1.6,2.8,1.8,5.5.2,2.6.6,8.3.6,11.9s.3,9.6.4,10.6c0,1,0,4.8,0,4.8Z"/>
          <path class="st6" d="M517.9,308h0c-.6.2-1.1.3-1.5.3-2,.1-3.3.5-5.9,0-2.6-.5-5.8-.7-7.2-1.3-1.4-.5-3.9-1.1-3.9-1.1,0,0,0-10.8,1.3-15.1,1.2-4.3,3.7-10.2,4.2-11.2.5-1,2-4.6,2.9-5.7s1.2-3.1,2.7-2.7c0,0,.7-.8,1.6-1.3-.1.7-.2,1.4,0,2.2.3,2-.3,2.5.6,3.8.9,1.3,1.5,1.7,1.7,3,.3,1.3.9,1.5.3,3-.5,1.4-1.7.6-1.3,3,.4,2.3.7,1.2.6,3.2-.1,2-.3,3-.3,3.2,0,.3-.6,3.4-.6,4.1s-.3,2.7.7,4.1c1,1.4,1.6,1.3,1.6,3s.3,2.6.3,2.6c0,0,.4.5.9,1.1.3.4,1,1.5,1.3,2.1Z"/>
        </g>
        <g>
          <path class="st8" d="M561.7,300.6c0,1.4,0,3.5,0,3.5,0,0-2.3.2-5.2.3-3.7.1-8.3,0-10-1-3.1-1.7-1-19.1-.9-20.8.1-1.7,0-5.7-.2-6.7-.2-1-.9-3.6-.9-3.6,0,0,.2-3.1-.4-4.5-.6-1.4-1.1-5.6-.8-6.9.3-1.3.4-2.4.6-3.9.1-1.5.3-2,.7-4,.4-2,.3-4,.5-4.9.2-.9.7-1.8.9-2.1.2-.3.2-1.9.8-2.6.6-.7,1.2-4.5,2.8-5.8,1.5-1.3,1.8-1.7,2.8-1.4,0,0,0,0,0,0,1,.4,2.7,1.2,3.7,3.1,1,2,1.2,3.9,1.6,6,.4,2-.1,2.4.7,4.9.8,2.5.7,3.7.9,5.8.1,2.1,1.2,4.6,1.5,5.9.2,1.4.5,8.3.3,10.8-.2,2.5,0,7.4,0,9.5.1,2.2,0,5.7.5,7.5.4,1.8,0,2.6,0,4.1,0,1.5-.3,2.8,0,4.1.2,1.2.3,1.3.3,2.7Z"/>
          <path class="st6" d="M556.5,302.9v1.5c-3.7.1-8.3,0-10-1-3.1-1.7-1-19.1-.9-20.8.1-1.7,0-5.7-.2-6.7-.2-1-.9-3.6-.9-3.6,0,0,.2-3.1-.4-4.5-.6-1.4-1.1-5.6-.8-6.9.3-1.3.4-2.4.6-3.9.1-1.5.3-2,.7-4,.4-2,.3-4,.5-4.9.2-.9.7-1.8.9-2.1.2-.3.2-1.9.8-2.6.6-.7,1.2-4.5,2.8-5.8,1.5-1.3,1.8-1.7,2.8-1.4-.2,1.8-.4,4.6-.7,5.9-.5,2-.7,0-.7,3.3s-.3,2.8,0,4.6c.3,1.8,0,.9.7,2.9.7,2.1,1.2,2.5,1.3,4.3,0,1.8-.4,2.3,0,3.8.4,1.5.4,1.9.4,3.6v3.6c0,1.9.5.3,0,2.8-.5,2.5-1.5,7.4.6,9.7,2.1,2.4,2.2,2,2.3,3.7,0,1.7.6,1.5,0,3.3-.6,1.8-1.4-.6-.7,3.5.7,4,1.1,4,1,5.4,0,1.4,0,1.4,0,3,0,1.7,0,3.3,0,3.3Z"/>
        </g>
      </g>
      <g>
        <path class="st1" d="M0,328.7c4.9-1.1,9.9-2.1,10.9-2.3,2.1-.4,6.9-1.4,12.1-1.3s5.7.8,11.4.6c0,0,7.7.1,10.9.6,0,0,.5.2,2.8,0,2.3-.1,7.6-.1,9.1,0,1.5,0,11.7.5,15.2.6,3.6,0,6,.1,9.2,0,3.2,0,4.3-.2,5.6,0,1.3.2,5.7.4,11.4-.2,5.7-.6,15.3-2.2,19.4-3.5,0,0,2.8-.8,6.7-2.9,0,0,2.6-1.7,4.5-2.5,1.9-.8,9.7-3.3,12.6-4.1,2.9-.8,2.7-1,5.3-1.4,2.6-.5,9.2-2.4,11.8-3.6,2.6-1.2,10.2-4.6,10.2-4.6l2.2-1.6-3.8-.3-3.6.8,2.2.3-13.8,4.8s-3.7.7-6.4,1.5c0,0,1.3-.9,1.7-1.3s1.6-1.6,1.6-1.9c0-.3,2.5-2.1,3.6-2.9v-1.1s-2.4-.1-4.7,0c0,0-2.8.4-.3,1,0,0-2.4,1.9-7.5,4.1,0,0-4.1.6-7.4,1.2-3.2.6-4.7.9-6.3,1.3-1.6.4-4,.9-5,1.3s-1.2.5-2.4.8-5.4.8-5.4.8c0,0-1.5.5-1.8.6s-.7.3-.8.3-3.1.4-3.6.5-1.7.1-1.7.1c0,0,.7-.4,2.6-1.1,1.9-.7,1.6-.8.8-1s-.9-1.3-6.4-1.2c-5.5.1-13,1.5-13.9,1.7,0,0,8.7-3.7,9.3-3.9s4.9-1.7,4.5-2.1,5-2.2,5-2.2c0,0,5.7-2.2,5.8-2.2s.3-.3-1.6-.3c0,0-.5-.3-4.6-.3,0,0-.8,0-1.1.1,0,0-.5-.2-3.2,0,0,0,0,.5.6.5s.8,0,.5.2-1.1.7-1.5.8-1.3.5-1.6.7-.7.5-1.5.6c-.8.1-2.1.5-2.4.6s-.6.3-.6.3l-8.6,2.2s-8.1,2.4-9.7,2.7c-1.6.4-3.1.7-3.5.8s-5.2,1.3-6.2,1.6-2.9.7-3.9.8-3.8.1-9.8.7-12.3,1-19.3,2.4-18,2.8-18,2.8c0,0-12.2,2-17.1,2.9"/>
        <path class="st8" d="M43.5,178.7s-1.4-2.3.9-2.7c0,0,.7-.7,1.2-.9s7.4-2.8,7.4-2.8c0,0,.6-1.1-.1-1.7,0,0-.5-.6,0-1,.5-.4.5-.7.9-.9s6.6-.7,6.6-.7c0,0-4.1-3.3-4.4-8.5,0,0,0-.8,3.3,1.4,3.3,2.2,8,5,12.9,9.5,4.9,4.6,6.1,11.2,6.1,11.2,0,0,6.2,17.4,7.1,19,.9,1.6,2.4,6.1,8.3,5.4,5.9-.7,8.5-3.3,13.7-2.4,0,0,8.5-.6,13.2-2.6,0,0,1.1-.9,3.1-.3,2,.6,7.4.5,9.2.2s13.7-2.1,17.6-2.4c3.9-.2,6.7-.6,9.8-.3,3.1.3,3.8.9,5.7.1s7.2-1.7,11.2.8c4,2.5,8.5,9.5,8.8,14.6,0,0,.1,3.6-2.4,12.1,0,0-2.8,7.1-3.5,10.5s-.7,13.9-.3,17.3c.4,3.4-.3,4,.9,6,1.2,2,1.8,10,.5,15.1-1.3,5.1-4.5,19.4-4.5,19.4l-2.9,6.7-4.8,1.1-1.3-3.2,3.2-1.1,1.4-20.3s-1.4-3.2-1.7-6.4c0,0-1.4,3.6-2.6,5.5-1.1,1.9-3.5,6.6-4.5,8s-4.4,8.9-5.8,12.3l-3.7,4.8s-2.9.5-4.8,0c0,0-1.5-1.8,3.1-4.4,0,0,3.6-7.9,5.8-17.5,0,0-2.5-2.4-3.8-5-1.3-2.6-2-3.7-2.3-5.5-.3-1.8-1-4-1-5.5,0-1.5.5-2.3,0-3.2-.6-.9-3.1-3.2-3.1-3.2,0,0,0-2.1.2-2.6.2-.5.2-1.2.1-1.3s-1.9-1.7-2.1-2.1-1.3-.6-1.3-.6c0,0-.6,1.7-.9,4.7s-.9,3.3-2.3,4.1c-1.4.8-5.2,5.5-10.6,5-5.3-.5-8.6-6.2-8.9-7.1,0,0-3,15.5-3,16.3s-.6,7.3-2.3,8.9c-1.7,1.6-1.8,9.1-1.8,9.1,0,0-1.2,9.2-1.3,9.4s-.8,1.5-2.6,1.2c0,0-1.3,1.1-5.9,1.4,0,0-1,.2-.7-.5,0,0-1.1.7-3.3,0,0,0,1.6-2,2.3-2.1.7-.1.9-.1,1-.7s1.2-3.1,1.1-3.5.3-2.1.7-3,.8-2,.4-2.5-.7-2-.5-2.6.3-1.3.3-1.3l-1.7-9.3s-.7-9.9-1.1-11.6c-.4-1.6-.9-3-.9-3.5s-1-5.7-1.2-6.8c-.2-1.1-.6-3.1-1.3-3.5-.8-.3-3.6-.5-7.9-2.8-4.4-2.4-9.6-4-12.2-10.1-2.6-6-9.3-12-9.3-12,0,0-6.1-8.5-8.1-12.4-2-3.9-3.8-8.6-2.9-13.1,1-4.5,2.7-8.9,1.4-11.4-1.3-2.5-2.1-5-5.6-6.1-3.5-1.1-5.3-1.4-8-.7,0,0-2.4,1.3-4.2-1.4,0,0-.4-.9.6-1.2,0,0-1.7.7-2.1-.7,0,0-.6-1,1.3-2.3Z"/>
      </g>
      <g>
        <g>
          <polygon class="st4" points="211.9 368.9 25.2 409.7 104.4 444.5 244.8 370.8 211.9 368.9"/>
          <g>
            <path class="st10" d="M267,317.3c-1.8-1.5-1.8-6.3-1.8-6.3.4-9.4-5-11.8-5-11.8-3.6-2-8-.7-8-.7,0-1.4-1.5-1.5-1.5-1.5-.6.3-1.5.3-1.5.3-.8-.3-2.5-.3-2.5-.3-23.7-2.1-38.1.6-38.1.6-.7.1-1.3.4-1.7.7h0c-.6.5-.9,1-.9,1,0,0-4.9-1.2-9,1.2-4.1,2.4-4.7,7.5-4.4,11.1.3,3.5-1.1,7.9-1.1,7.9-3.3,3.8-3.7,8.8-3.2,13.9.5,5.1,3.4,10.5,6.4,15.7,3,5.3,11.5,15.1,13.7,16.7,2.2,1.5,5.5,5.4,5.5,5.4,2.5,1.8,6.5,2.6,10.5,2.8,5.1.3,10.3-.2,13.3-.7,5.4-.8,7-2.5,7-2.5,17.1-12.1,25.5-37.2,25.5-37.2,2.9-8.8-3.3-16.3-3.3-16.3ZM199.4,305.4s1.9-2.7,6.8-.9c0,0,2.3.7,1.9,2.6-.4,1.9-2.8,3-2.8,3l-5.6,2.5s-2.9-3.9-.3-7.2ZM258.5,311.8c-.7-.3-3.4-1.7-6.8-2.3,0,0-1.7-.3-2.2-2.8,0,0-.3-1.5.9-1.9,1.2-.4,4.8-1.5,7-.6,0,0,2.1.9,2.3,3l.3,3.6s-.9,1.3-1.6,1Z"/>
            <path class="st7" d="M202.2,321.9c2.1-8.4,14-8.8,14-8.8,0,0,0-2.2.6-6.2.6-4.1-2.5-6.1-2.5-6.1-8.5-.5-7.5-2.6-7.5-2.6h0c-.6.5-.9,1-.9,1,0,0-4.9-1.2-9,1.2-4.1,2.4-4.7,7.5-4.4,11.1.3,3.5-1.1,7.9-1.1,7.9-3.3,3.8-3.7,8.8-3.2,13.9.5,5.1,3.4,10.5,6.4,15.7,3,5.3,11.5,15.1,13.7,16.7,2.2,1.5,5.5,5.4,5.5,5.4,2.5,1.8,6.5,2.6,10.5,2.8-20.2-38.4-24.4-43.6-22.2-52ZM199.4,305.4s1.9-2.7,6.8-.9c0,0,2.3.7,1.9,2.6-.4,1.9-2.8,3-2.8,3l-5.6,2.5s-2.9-3.9-.3-7.2Z"/>
          </g>
        </g>
        <ellipse class="st7" cx="228.6" cy="298.9" rx="18.5" ry="1.2"/>
      </g>
    </g>
  </g>
</svg>