<?xml version="1.0" encoding="UTF-8"?>
<svg id="Capa_2" xmlns="http://www.w3.org/2000/svg" version="1.1" viewBox="0 0 590 444.5">
  <!-- Generator: Adobe Illustrator 29.3.1, SVG Export Plug-In . SVG Version: 2.1.0 Build 151)  -->
  <defs>
    <style>
      .st0 {
        fill: #eb8702;
      }

      .st1 {
        fill: #93cc83;
      }

      .st2 {
        fill: #206c60;
      }

      .st3 {
        fill: #fff4ee;
      }

      .st4 {
        fill: #bcb123;
      }

      .st5 {
        fill: #053238;
      }

      .st6 {
        fill: #dbce22;
      }

      .st7 {
        fill: #e42520;
      }
    </style>
  </defs>
  <circle class="st0" cx="537.1" cy="313" r="214.2"/>
  <path class="st1" d="M527.5,255.8c0-5.6,0-24.4,0-28.4,1.1-4.5,1.5-6.4,1.1-10,0-1.5-.6-2.8-1.3-5.2-.5-2-.8-4-1.1-6-.4-2.5-2.1-3.5-4.5-3.9-.2,0-.5,0-.7-.1v-.9c.7-1.4.5-4.1-.3-6.5-.4-1.3-1.7-1.8-3.1-1.8s-2.9.7-3,2.2c0,2.1-.2,4.2-.3,6.3,0,.9-.4,1.2-1.3,1.1-2.3-.2-4.7-.4-6.2,1.8,0,0-.3,0-.5.2.2-2.6.8-6,1.1-6.2.1,0,.7-.3.8-.7.1-.5,0-1.3,0-1.7v-2.5c0-.1-.1-.3-.3-.3,0,0,0,.1-.1,0v-.2c-.2-.2-.5-.2-.5,0,0,.8-.2,1.4-.2,2.1-.6,0-1.4,0-1.6.4-.3.4-.6,1.7-.2,2.6.1.3-.8,3.9-1.4,6.1-.7,2.3-.4,4.5-.2,6.8.1,1.5,1.4,1.9,2.6.9.3-.2.3-.5.5-.8.2.1.4.4.6.5,0,1.2-.2,4.1-.2,5.3s-.2,1.8-.1,2.7c.1,2.1.6,4.2.5,6.3-.3,4.3-.4,24.6-.7,29.8h-3.2v10h27v-10h-3.2Z"/>
  <path class="st1" d="M-461.4,384.3s23.6-6.2,70.5,0c46.8,6.2,57.8,0,107.8-15.6,50-15.6,191.6-23.4,191.6-23.4,0,0,58.6,14.1,117,0,18-4.3,32.3-7.9,43.6-10.8,19.1-4.9,39.2-2.8,57.1,5.4,9.3,4.3,21.4,7.9,35.9,8.6,37.4,1.6,16.8,15.6,58.3,1.6,41.5-14.1,11.9,6.2,41.5-14.1,29.7-20.3,101.5-39,110.9-43.7s18.7-3.9,35.9-11.3c17.2-7.4,51.5-22.7,81.2-19.7s20.3-4.6,53.1.7c32.8,5.3,40.6,7.2,67.2-.7,26.5-8,68.7-11.1,73.4-11.1s13.1.8,13.1.8v276.5H-461.4v-143.2Z"/>
  <g>
    <path class="st5" d="M-58.8,342.6c-2.3,2.4-4.6,4.7-6.9,7.1-.4,7.5-6.5,13.8-13.4,13.9-2.5,2.7-4.9,5.5-6.7,8.7-.4.8-.9,1.8-.3,2.7.8,1.3,2,.8,3,.5,2.3-.7,4.5-1.5,6.8-2.3,1.1,0,2.2,0,3.3-.3,1.9-.5,4-3.3,5.4-1.2,1.5,2.2-1.5,4.1-2.9,6-.3.4-.6.7-1,1-6.7,6.2-10.4,14.7-16.4,21.5-.7.8-2,2.3-.6,3.3,1.4,1.1,2.7-.1,3.7-1.2,1.5-1.6,2.9-3.4,4.4-5,7.8-8.1,17.8-13.9,23.7-23.9,1-1.7,2.9-2,4.7-1.9,5.3.3,10.4-1,15.5-2.2,11.1-2.7,22.3-5.4,33.4-8.4,20.2-5.5,40-12.4,59.9-18.8,4.9-1.6,9.3-3.7,13.2-7.5,3.9-3.9,9.1-5.6,14.6-6.3.4-.2.8-.5,1.2-.7,1.3-1.5,2.9-2.1,4.8-1.8,0-.1.3-.2.4-.4-.2-1.2.5-1.5,1.5-1.7,2.4-3.2,5.8-5.2,8.9-7.6,10.6-8.3,23.2-14,31.6-25,.8-1.1,2.2-1.8,3.7-1.9.3-.3.5-.6.8-.9.1-3.3,1.9-5.3,4.8-6.8,2.8-1.4,5.4-3.2,7.2-5.8-1.2-1.5,1.6-3.5-.7-5.1-.5-.3,1-.6,1.7-.8-.9-2.8-.1-4.5,3-4.6-.6-1.7-2-1.6-2.8-2.3-2.1-1.9-3.5-3.7.7-5.1,2.6-.9,5.5-1.7,7.5-3.9-.2-1.2-.4-2.4,1-3.1.2-.6.3-1.2.5-1.7-1.5-.6-2.9-1.5-4.5-1.6-4.4-.3-4.3-2-1.4-5-4.2,1.5-8.4.3-12.6,1.7,5.7-.4,7.9,4.1,11.3,7-1.2,1.5-2.7,1.8-4,1.4-2.5-.8-4.4.4-6.2,1.6-2.9,1.9-5.6,2.3-9.3,1.7-2.9-.5-6.1,1.2-8-2.5,0-.1-.9.1-1.3.3-2.1,1.2-3.7.2-5.2-1.1-1.3-1.1-2.4-.9-3.9-.3-8,3.1-16.4,5.4-24.1,9.2-5.1,2.6-10.5,2.7-15.7,4.4-.6.2-5.2,2.7-3-2.4.8-1.8-1.3-1.5-2.5-1.7-2.8-.6-5,2.3-7.9,1-2.6-1.1-4.5.1-6.4,1.9-1.1,1-2,3.7-4,1.8-1.7-1.6-1.3-3.7.3-5.6,2.3-2.7,2.5-5.9,2.5-10.4-3.9,3.6-7.1,6.5-8.8,10.8-.6,1.5-1.5,3.1-3.2,3.2-2.7.2-.6-2.7-2.2-3.6-4,.9-4.7,9.6-11.1,5.1-.1.5-.2,1-.4,1.4-.5,1-1,2.1-2.5,1.8-.2,0-.5-.4-.5-.7,0-1.4.9-1.9,2-2.3.4-.1.9,0,1.4-.1-.8-2.6,2.6-4.2,1.4-7.4-5.3,8.9-15.6,9.8-23,15.2-.8.6-1.7,1.2-2.5.3-.9-1,0-1.8.7-2.4.5-.6,1.3-1,1.8-1.5,1-1,3.7-1.1,2.7-3.2-.9-1.8-3.1-1-4.8-.8-1.5.2-2.4,1.5-3.6,2.2-3,1.7-5.2,5.3-9.4,4.5-.2,0-.4.2-.4.4,1.4,3.5.2,6.1-2.8,8.2-4,2.9-7.8,6-10.1,10.6-.8,1.7-2.3,2.7-4.2,2.7-2.7,0-3.9,1.8-4.8,4-.6,1.5-.6,3.4-2.1,4.2-6.7,3.7-9.5,10.5-13.6,16.3-1.8,2.5-4.4,4.8-4.2,8.3.3,1.2.5,2.3.8,3.5,5.3,4.5,5.2,6.4-.7,9.2-2.9,1.4-6,1.8-9.1,2.1h-.1Z"/>
    <path class="st4" d="M90.6,325.9c0-.1.3-.2.4-.4,1.1,0,1.5-.6,1.5-1.7,2.4-3.2,5.8-5.2,8.9-7.6,10.6-8.3,23.2-14,31.6-25,.8-1.1,2.2-1.8,3.7-1.9-1.5,2.4-3.7,4.3-2.6,7.9,2.3,7.7-4.9,9.2-9,12.6-.5.4-1.2.3-1.8.7-3,1.7-5.9,4.1-5.8,7.6,0,3.3,3.7,3.2,6.3,4,2.9.8,5.5,2.5,5.6,5.8.1,3.1,1.6,3.8,4.3,3.6.8,0,1.6,0,2.4.3,1.7.5,3.5,1,4.1,2.9.6,2.1-.9,3.2-2.3,4.3-1,.7-2.6,1.3-2,2.9.5,1.5,2.2,1,3.4,1,4.5,0,8.9-.1,13.4-.8,2.4-.4,5.7-.7,4,3.9-.8,2.2.6,2.5,2.3,2,8.3-2.3,16.6-4.5,22.7-11.3,2.4-2.7,6-3,9.1-3.9,6.9-2,13-6.7,20.9-5.9,3.9.4,4,1.4,2.6,4.3-2.1,4.5-5.3,7-10.4,8.1-4.4,1-8.8,3.1-11.7,7.2-2.3,3.1-6.3,5-6,9.8.1,2.5.3,3.7,3.2,2.7,5.4-1.9,9.7-5,13.7-9.3,4.6-4.9,10.3-9.8,17.7-10.5,3.8-.4,6.3-1.9,8-5.1.4-.7.8-1.4,1.3-2,4.7-5,4.8-5.1,8.4,1,1.2,2.1,2.5,2.1,4.3,1,2.1-1.3,3.4-3.4,4.9-5.2,1.1-1.3,2.2-2.9,3.6-3.8,1.6-1.1,3.5-3.1,5.5-1.2,1.8,1.7.1,3.6-.7,5.2-1.2,2.3-2.6,4.4-2,7.2-.9.9-1.6,1.9-2.6,2.8-13.1,12.1-25.8,24.6-38,37.6-5.4,5.8-11.6,10.5-19.3,12.8-4.4,1.3-8.1,3.4-11.9,5.9-7.3,4.7-13.9,10.9-23.5,10.7-3.1-2.2-5.8-5-10-1.4-1.5,1.3-4.4.8-4.2-2.3.2-3.4-1.8-3.7-4.2-3.7s-5.7.6-8.3,2.1c-3.3,1.9-5.8,1.6-7.1-2.3-1-3-3.2-4.1-6.1-4.5-3.7-.5-7.8,0-10.1-4.1-.2-.4-1.2-.8-1.7-.6-4.9,1.7-8.9-.3-13.1-2.5-2.7-1.4-5.7-.1-8.3,1-6.1,2.7-9.2,2.1-13.4-3.1-3-3.7-6.2-4.5-10.4-2-6.5,3.8-12.5,8.2-18.3,13-3.4,2.9-7.2,3.3-10.8.5-2.5-1.9-3.8-.2-5.2,1.2-3,3-5.3,6.8-9.9,7.8-1.8,0-3.6.1-5.5.2-.6-3.1,1.9-4.9,3-7.3,1.8-3.8-2.2-12.7-6.3-13.4-2.4-.5-2.9,1.1-2.1,2.9,2.1,4.7-.8,5.9-4.5,6.7-3,.7-6,.4-9.1.5-2.5.1-5.1-.6-6.8,2.3-1,1.7-2.5.2-3.8-.1-4.3-1-8.8-3.8-11.9,2.4-1,1.9-3.2.5-4.8,0-4.3-1.3-8.9-3.6-10.4,3.5,0,.5-.9,1.1-1.4,1.1-6.1.5-8.1,6.4-12.3,9.3-.6.4-1,1.7-1,2.6,0,3.7-2.2,6-4.8,7.8-5.8,3.8-8.8,9.3-10.7,15.7-.8,2.8.6,3.5,3,3.2,1.6-.2,3.1-2.2,4.7-.2-5.5,7.8-10.6,16-17.2,23.1-10.7,1.2-21.3,2.9-30.8,8.8-.8.5-1.7,1-2.6,1.2-2.3.7-5.5,2.2-6.6,0-1.3-2.2,2.7-2.3,3.8-3.9,4.5-6.1,12.1-8.6,16.7-14.6,3.4-4.4,6.4-9,8.3-14.4,1.3-3.6,3.9-6.2,7-8.2,3.2-2.1,5.2-4.8,6.4-8.6,2.2-7.2,8.1-12.1,11.9-18.4.9-1.5,2.1-2.7,2.3-4.6.6-7,4.8-11.2,11-13.6,1.2-.5,2.1-1.3,3.2-2,3.3-2.3,6.5-4.7,10.6-1.1,1.9,1.7,3.7.5,5.6-.7,3.5-2.2,7.2-4.7,11.1-.4,1.2,1.3,2.5.6,3.9-.2,3.9-2.4,7.7-4,12.6-1.9,3.4,1.4,6.6-.3,8.4-3.7.8-1.5,1.2-3.3,1.7-5,1.5-5.6,4.6-9.5,10.3-11.5,12.2-4.2,24-9.7,36.4-12.8,9.4-2.3,18-6.1,26.9-9.5.9-.3,1.6-.8,2.5-1.3-1-2.1-3.3.2-4.3-1.9,1.6-3.1,5-3.9,7.9-5.4,1.6-.8,3.9-.8,4.5-3.1.4-.2.8-.5,1.2-.7,2.1.7,3.8.3,4.8-1.8v-.3ZM111.7,364.1c3.4-.8,7.1-1.9,8.6,3,.5,1.5,1.8,2.2,3.3,2.4,2,.3,4.7-.2,6.1.6,6.8,3.9,13.2,0,19.7-.5,5.4-.4,6.9-3.4,4-8.1-3.7-6-6-6.9-12.7-5.3-3.6.9-7,.4-10.3-1-2.1-.9-3.6-.9-5.4,1.2-2.7,3.2-6.9,2.3-8.8-1.5-.4-.9-.9-1.7-1.1-2.6-1.3-6.3-5.9-3.8-9.5-3.5-3.7.4-4.7,3.4-5.2,6,0,8.4,3.7,11.3,11.3,9.4h0ZM113.2,338.7c.2-3.4-2-5.5-5.9-5.5s-7.8,2.4-7.8,6,.9,3.6,6.8,3.5c2.7-.2,6.7.5,6.9-4Z"/>
    <path class="st6" d="M136.7,289.2c-1.5,2.4-3.7,4.3-2.6,7.9,2.3,7.7-4.9,9.2-9,12.6-.5.4-1.2.3-1.8.7-3,1.7-5.9,4.1-5.8,7.6,0,3.3,3.7,3.2,6.3,4,2.9.8,5.5,2.5,5.6,5.8.1,3.1,1.6,3.8,4.3,3.6.8,0,1.6,0,2.4.3,1.7.5,3.5,1,4.1,2.9.6,2.1-.9,3.2-2.3,4.3-1,.7-2.6,1.3-2,2.9.5,1.5,2.2,1,3.4,1,4.5,0,8.9-.1,13.4-.8,2.4-.4,5.7-.7,4,3.9-.8,2.2.6,2.5,2.3,2,8.3-2.3,16.6-4.5,22.7-11.3,2.4-2.7,6-3,9.1-3.9,6.9-2,13-6.7,20.9-5.9,3.9.4,4,1.4,2.6,4.3-2.1,4.5-5.3,7-10.4,8.1-4.4,1-8.8,3.1-11.7,7.2-2.3,3.1-6.3,5-6,9.8.1,2.5.3,3.7,3.2,2.7,5.4-1.9,9.7-5,13.7-9.3,4.6-4.9,10.3-9.8,17.7-10.5,3.8-.4,6.3-1.9,8-5.1.4-.7.8-1.4,1.3-2,4.7-5,4.8-5.1,8.4,1,1.2,2.1,2.5,2.1,4.3,1,2.1-1.3,3.4-3.4,4.9-5.2,1.1-1.3,2.2-2.9,3.6-3.8,1.6-1.1,3.5-3.1,5.5-1.2,1.8,1.7.1,3.6-.7,5.2-1.2,2.3-2.6,4.4-2,7.2,24.1-19.6,33.5-45.4,32.3-75.8-1.8,2.9-1.7,6.1-1.7,9.3s-1,4.2-3.6,3.9c-3.7-.3-5.7,1.2-6.3,4.9-.3,2-1.9,2.8-3.9,2.8s-3-.6-3.5-2.5-.3-5-2.9-4.7c-2.8.3-6.3.9-7.3,4.4-.7,2.3-2.4,3.3-4.3,4.1-1.5.7-3.2,1.1-4.1-.9-.7-1.6-.4-3.2,1.4-4,2.8-1.3,2.5-3.5,2.3-6-.2-3.2-2.7-4.9-4-7.3-1.9-3.8-3-2.6-4.1.3-1,2.8-2.3,3-4.4,1-2-1.9-4.4-3.5-7.2-3.2-10.1,1-19.2-2.8-28.5-5.6-2.2-.7-4.1-.7-2.2-3.8,1.3-2.1-1-2.2-2.4-2.2h-11c-1.8,0-4.4.9-5.1-1.4-.6-2.4,1.7-3.9,3.3-5.4,1-.9,2.4-.9,3.7-.8l.2-.2v.2c3.8,4.7,8.1,5,12.9.9.1-.1.2-.2.4-.3,2.7-1.7,5-3.2,9-2.7,5,.7,10.1,2.2,15.5.2,4.5-1.7,7.8-9,4.9-12.5-1.4.8-2.6,1.9-2.5,3.8,0,1.3-.6,2.2-1.9,2.3-2.4.2-4.2,1.2-5.8,2.9-.8.9-2,1-3.1.4-6.7-3.8-12.6-2.5-18.3,2.4-.6.5-3.6,6.4-5,0-2.7,1.9-3.2-3-6-1.7-5.7,2.5-11.8,2.3-17.8,1.9-2.2,1-4.3,2.4-6.5,0-2.9,2.1-3.9,4.1,1,5.6-2.3,1.5-4.2,3.1-6.9,2.7-.2.6-.3,1.2-.5,1.7,1.1.8,3.6,1,1.4,3.2.7.8,1.4,1.5,2.1,2.2-1.8.7-4.9-1-5.5,1.3-.7,3,3.4,3.5,4.7,5.8-4.4,2.1-7.2,6.3-12.2,6.5-.6.2-2.2.5-1.7.8,2.3,1.6-.4,3.6.7,5.1,3.1.7,4.2,2.2,1.7,4.8-2,2.2-4.1,4.4-6.1,6.6-2.2,2.3-4.7,2.9-7.6,1.2-.3.3-.5.6-.8.9h-.2Z"/>
    <path class="st5" d="M338.3,179.9c10.3-5.6,21.9-7,33.1-9.5,11.7-2.6,22.9-6.4,33.9-11.2,2.1-.9,4.1-1.7,6.4-1.6-2.8-3.3-6.4-2-9.8-1.5-10.4,1.4-20.4,4.8-31,5.7-14.6,1.2-29.2,3.1-43.1,8.2-2,.7-4.1,1.6-6.9.4,5.2-3.2,11.1-3,16-5.9-1.2-1.2-2.4-1.8-2.1-3.9.6-4.6-.5-5.3-5.4-4.5-1.4.2-2.9.3-4.2-.3-.7.2-1.4.3-2.1.5-.4,2.4-1.8,3.3-4,2.4-1.7-.7-2.7,0-2.4,1.6,1,4.7-2.1,3.1-3.8,2.3-4.3-2-8.7-3.6-13.3-4.7-1-.2-1.7-.9-1.9-1.9-1.1,0-2.3.1-3.4.2-5.3.4-10.6,1.2-15.8-.7h-4.3c-.8.9-1.8.6-2.8.4-1,.3-2,.5-3,.8-1,2-3,1.1-4.6,1.6-3.5,2.1-5.3,6.9-10.4,6.5-.3,1-1.2,1.3-2,1.5h0c0-.9.2-1.7.3-2.6-2.3,0-4.6,0-6.8.1-.7.8-1.3.7-1.7-.3h-2.7c-.5,1.9-1.5,3.6-3.6,4.1-6.7,1.4-12.5,5.3-19.2,7.2-4.5,1.3-9.3,3.9-13.4,7.3-3.3,2.7-6.8,6.3-12,5.5-.8,0-1.6.2-2.3.3-2.9,3.6-8.2,3.6-11.1,7-4.7,5.5-10.7,8.1-17.7,8.9l-.2.2.2-.2c-1-.7-2.6-1.2-3-2.2-1.1-2.5-2.4-3.5-5-2-1,.6-1.7-.5-2.6-.9-1.5-.6-2.9,0-4,.9-3.4,2.9-4.7,16.9-1,18.8,5.7,2.8,10,7.9,16.4,9.6,3.6,1,7.9,1.3,10.3,4.4,3.4,4.4,7.6,4.8,12.4,3.8,1.7-.3,3.6-1.5,5.1-1,5.3,1.6,10,0,14.6-2s9-2.6,13.8-.6c4.3,1.8,6.9,0,7.6-4.8.4-3,1.5-5.9,4.7-6.6,2.6-.6,4.7-2,7.1-2.7,4.5-1.4,8.8-4.1,13.8-3,1-.6,2.1-1.2,3.1-1.7,3.7-3.8,7.7-6.9,13.1-7.9,3.4-.6,8.2-1,9.6-3.2,2.7-4.1,6.4-4,10-5.1.7-.6,1.1-1.7,2.2-1.6,4.8.4,7.8-3,11.4-5.2,1.4-3.9,3.2-6.8,8.1-4,1.2.7,2.8,0,4.1-.5,8.5-2.4,17-4.6,25.6-6.2l-.3-.2Z"/>
    <path class="st2" d="M160.8,203.7c-1-.7-2.6-1.2-3-2.2-1.1-2.5-2.4-3.5-5-2-1,.6-1.7-.5-2.6-.9-1.5-.6-2.9,0-4,.9-3.4,2.9-4.7,16.9-1,18.8,5.7,2.8,10,7.9,16.4,9.6,3.6,1,7.9,1.3,10.3,4.4,3.4,4.4,7.6,4.8,12.4,3.8,1.7-.3,3.6-1.5,5.1-1,5.3,1.6,10,0,14.6-2s9-2.6,13.8-.6c4.3,1.8,6.9,0,7.6-4.8.4-3,1.5-5.9,4.7-6.6,2.6-.6,4.7-2,7.1-2.7,4.5-1.4,8.8-4.1,13.8-3-2.1,1.3-4.3,2.5-6.4,3.8-3.4-1.6-5.7-.6-7,2.9-1.4,2.2-2.9,4.3-4.3,6.5-1.4.8-2.6,1.9-2.5,3.8,0,1.3-.6,2.2-1.9,2.3-2.4.2-4.2,1.2-5.8,2.9-.8.9-2,1-3.1.4-6.7-3.8-12.6-2.5-18.3,2.4-.6.5-3.6,6.4-5,0-2.7,1.9-3.2-3-6-1.7-5.7,2.5-11.8,2.3-17.8,1.9-2.2-2.6-4.3-1-6.5,0-2.9,2.1-3.9,4.1,1,5.6-2.3,1.5-4.2,3.1-6.9,2.7-1.5-.6-2.9-1.5-4.5-1.6-4.4-.3-4.3-2-1.4-5-4.2,1.5-8.4.3-12.6,1.7,5.7-.4,7.9,4.1,11.3,7-1.2,1.5-2.7,1.8-4,1.4-2.5-.8-4.4.4-6.2,1.6-2.9,1.9-5.6,2.3-9.3,1.7-2.9-.5-6.1,1.2-8-2.5,0-.1-.9.1-1.3.3-2.1,1.2-3.7.2-5.2-1.1-1.3-1.1-2.4-.9-3.9-.3-8,3.1-16.4,5.4-24.1,9.2-5.1,2.6-10.5,2.7-15.7,4.4-.6.2-5.2,2.7-3-2.4.8-1.8-1.3-1.5-2.5-1.7-2.8-.6-5,2.3-7.9,1-2.6-1.1-4.5.1-6.4,1.9-1.1,1-2,3.7-4,1.8-1.7-1.6-1.3-3.7.3-5.6,2.3-2.7,2.5-5.9,2.5-10.4-3.9,3.6-7.1,6.5-8.8,10.8-.6,1.5-1.5,3.1-3.2,3.2-2.7.2-.6-2.7-2.2-3.6-4,.9-4.7,9.6-11.1,5.1h0c-.8-2.6,2.6-4.2,1.4-7.4-5.3,8.9-15.6,9.8-23,15.2-.8.6-1.7,1.2-2.5.3-.9-1,0-1.8.7-2.4.5-.6,1.3-1,1.8-1.5,1-1,3.7-1.1,2.7-3.2-.9-1.8-3.1-1-4.8-.8-1.5.2-2.4,1.5-3.6,2.2-3,1.7-5.2,5.3-9.4,4.5,1.2-1,2.4-2,3.6-3.1,28.6-27.3,61.5-47.8,97.9-63,8.9-3.7,18.3-6.3,27.6-9.1,10.1-3,20.7-3.2,30.8-6.5-1.3,5.2-1.4,5.3,4.5,5.5,2.8,0,3.7,3.7,7.4,3.1,3.4-.6,6.7-1.4,8.9-3.7,4.6-4.8,10.4-6.9,16.6-8.2-2.9,3.6-8.2,3.6-11.1,7-4.7,5.5-10.7,8.1-17.7,8.9h-.3ZM106.2,236.2c6.1-1.2,12.6.7,17.1-5.1-.5-1-3.4.5-2.7-2,.7-2.9,3.3-2.3,5.7-2.1-.4-2.7-2.1-3.8-4.1-4.4-3.7-1-8-.4-9.8-5.3-.4-1.2-2.3-.7-2.9,1.4-1.3,4.6-3.4,5-7.7,3.3-5-2.1-10.3-2.4-15.7-.1-4.8,2-10.1,2.9-14.6,5.7-2.8,1.8,0,5.1-1.8,7.2,1.1.8,2.4.5,3.1-.4,4.6-5.7,11.6-4.1,17.4-5.9,3.7-1.1,5.2,1.1,4.1,5.3-.3,1.2-1.1,2.2-1.7,3.4-.4.7-.8,1.5,0,2.2.6.5,1.3.3,1.7-.2,1.5-1.8,3.3-1.6,5.2-1.2,1.3.3,1.8-.3,1.6-1.9-.5-6.8,4.6-10.1,12.8-7.2-4.6,1.1-6.6,3.4-7.7,7.4h0ZM152,239.2c1-.8.8-2,.4-3-1-2.4-2.9-2.9-5.7-2.3,3.3,1.3,4.5,2.8.9,4.8,1.5,1.3,2.9,1.8,4.4.6h0Z"/>
    <path class="st2" d="M-86.9,468.8c-7.1,9-17.4,12.6-27.7,16-11.2,3.7-21.7,8.1-29.6,17.3-2.3,2.7-5.4,2.8-8.1.4-3.3-2.9-6.5-6.1-9.7-9.2-.3-3-1.4-5.8,1.3-8.8,2.1-2.4-1.6-2.7-3-3.8.7-3.3,2.5-6.2,4.6-8.9,3.9-5,7.9-9.8,11.9-14.7,12.3-15.3,24.5-30.5,37.5-45.3,11.3-12.8,22.3-25.9,33.4-38.8,1.1,0,2.2,0,3.3-.3,1.9-.5,4-3.3,5.4-1.2,1.5,2.2-1.5,4.1-2.9,6-.3.4-.6.7-1,1-6.7,6.2-10.4,14.7-16.4,21.5-.7.8-2,2.3-.6,3.3,1.4,1.1,2.7-.1,3.7-1.2,1.5-1.6,2.9-3.4,4.4-5,7.8-8.1,17.8-13.9,23.7-23.9,1-1.7,2.9-2,4.7-1.9,5.3.3,10.4-1,15.5-2.2,11.1-2.7,22.3-5.4,33.4-8.4,20.2-5.5,40-12.4,59.9-18.8,4.9-1.6,9.3-3.7,13.2-7.5,3.9-3.9,9.1-5.6,14.6-6.3-.6,2.3-2.8,2.3-4.5,3.1-2.9,1.5-6.3,2.3-7.9,5.4,1,2.1,3.3-.2,4.3,1.9-.9.5-1.7,1-2.5,1.3-8.9,3.4-17.5,7.2-26.9,9.5-12.4,3-24.3,8.6-36.4,12.8-5.7,2-8.9,5.9-10.3,11.5-.4,1.7-.9,3.4-1.7,5-1.8,3.4-5,5.1-8.4,3.7-4.9-2.1-8.7-.5-12.6,1.9-1.3.8-2.6,1.6-3.9.2-3.9-4.3-7.6-1.8-11.1.4-1.9,1.2-3.8,2.3-5.6.7-4.1-3.6-7.3-1.1-10.6,1.1-1,.7-1.9,1.5-3.2,2-6.3,2.4-10.4,6.6-11,13.6-.2,1.9-1.4,3.1-2.3,4.6-3.7,6.3-9.7,11.2-11.9,18.4-1.2,3.8-3.2,6.5-6.4,8.6-3.1,2.1-5.8,4.6-7,8.2-1.9,5.3-4.9,9.9-8.3,14.4-4.6,6-12.2,8.5-16.7,14.6-1.1,1.5-5.1,1.6-3.8,3.9,1.2,2.1,4.4.6,6.6,0,.9-.3,1.8-.7,2.6-1.2,9.4-5.9,20-7.6,30.8-8.8-1,1.3-1.9,2.5-2.9,3.8h.1ZM-75.2,395.4c-3.3,4.1-6.5,8.3-9.6,12.5-.6.8-1.5,2.1-.3,3,.9.8,1.7-.3,2.4-.8,4.7-3.6,9-7.6,12-12.8.9-1.5,1.4-3.2-.9-4.4-1.3.9-2.8,1.5-3.6,2.6h0Z"/>
    <path class="st3" d="M251,215.5c-2.1,1.3-4.3,2.5-6.4,3.8-2.2,1.3-5,1.1-7,2.9-1.4,2.2-2.9,4.3-4.3,6.5,2.9,3.5-.3,10.9-4.9,12.5-5.3,1.9-10.5.5-15.5-.2-4-.6-6.3.9-9,2.7-.1,0-.2.2-.4.3-4.7,4.1-9.1,3.8-13-.9h0c-1.3-.1-2.6-.1-3.7.8-1.6,1.5-4,3-3.3,5.4.6,2.3,3.3,1.4,5.1,1.4,3.7.1,7.3,0,11,0s3.6.2,2.4,2.2c-2,3.2,0,3.2,2.2,3.8,9.3,2.8,18.4,6.6,28.5,5.6,2.8-.3,5.3,1.3,7.2,3.2,2.2,2,3.4,1.8,4.4-1,1-2.9,2.1-4,4.1-.3,1.2,2.4,3.7,4.1,4,7.3.2,2.6.5,4.7-2.3,6-1.8.8-2.1,2.4-1.4,4,.9,1.9,2.6,1.5,4.1.9,1.9-.8,3.6-1.7,4.3-4.1,1-3.5,4.5-4.1,7.3-4.4,2.7-.3,2.5,2.8,2.9,4.7.5,1.9,1.7,2.5,3.5,2.5s3.6-.8,3.9-2.8c.6-3.7,2.6-5.2,6.3-4.9,2.6.2,3.6-1.5,3.6-3.9s0-6.4,1.7-9.3c6-1.9,3-7.3,4.2-11,4.3,1.3,6.4-.4,6.5-5.3v-9.1c2.3-.7,1.8,3.9,4.2,2.2,2.2-1.5,1.1-3.7.8-5.7-.3-2-1-4,0-6.3,2.1,2,1.7,5.4,4.5,7.8v-21.7c3,2.3,3.5,5.3,5.4,7.6,5.2-6.6.1-14.9,3.7-22.4,2.4,5.9,7.3,7.9,13.1,10.5-.8-1.8-1.3-2.8-1.8-3.8s-1.2-1.9-1.8-2.8c-.3-.4-1.1-.8-.5-1.4.5-.4,1.1-.2,1.5.4,1.5.5,2.9,1,4.8,1.7-.4-4.2-3.2-7.9-2.2-12.1-.6-.9-1.1-1.8-1.7-2.7-3.4,2.9-7.1-1-11.1.6-2.9,1.2-4.9,4.9-8.7,3.7-2.4-.7-4.7-.4-7-.3-3.6,2.2-6.6,5.6-11.4,5.2-1.1,0-1.5,1-2.2,1.6,0,5.3-5.3,4.6-7.8,6.9-7.1,6.7-16.4,7-24.9,9.4-1,.6-2.1,1.2-3.1,1.7l.2.6Z"/>
    <path class="st3" d="M152.2,191.3c-1.3,5.2-1.4,5.3,4.5,5.5,2.8,0,3.7,3.7,7.4,3.1,3.4-.6,6.7-1.4,8.9-3.7,4.6-4.8,10.4-6.9,16.6-8.2.8,0,1.6-.2,2.3-.3,1.8-3.2,6.1-3.6,8-6.5,4.5-6.9,10-11.6,18.7-11.4,1.2,0,2-.9,2.9-1.4,5.7-3.5,12.1-4.4,18.6-4.7h2.7c.7-.6,1.3-.7,1.7.3,2.3,0,4.6,0,6.8-.1,1.2-.6,2-.7,1.8,1.1,5.1.4,6.9-4.4,10.4-6.5.5-3.4,3.1-.8,4.6-1.6,1-.3,2-.5,3-.8.9-.2,1.5-2.7,2.8-.4h4.3c.2-1.1,1.1-1.5,2.1-1.4,4.6.6,9.4-.4,13.8,2.1,1.1,0,2.3-.1,3.4-.2,4.4,1.2,9.1,0,13.4,2.2,1.7.9,3.7.8,5.3-1.6,1.7-2.5,4.4-4.7,6.8-.3.7-.2,1.4-.3,2.1-.5,5.6-4.6,12.6-3.6,19.2-3.9-.5-2.3-3.5-1-3.3-3.5,2.3-1,4.8-.9,7.1-.4,6.8,1.4,13.7.5,20.5.7,1.6,0,3.7.7,4.4-1.7h0c-9.6.1-19.2.3-28.8-.8-3.3.5-4.9-2.8-7.5-3.6-4.7-1.5-9.3-3.2-14.3-3.3-3.9-.1-7-1.6-9.8-4.2-4.9-4.6-10-8.9-16.2-11.6-2.6,0-7-.9-7.6,0-2.6,5-7.8,7.7-10,12.9-.4,1-1.8,2.3-2.8,2.3-4.2.1-8.3,1.9-12.5.9-5,.6-9.8-1.3-14.7-1.1v.2c-.1,0-.3-.2-.3-.2-6.1.5-12.1,1-18.7,1.5,1.3,1.8,3.8.6,3.7,2.4,0,1.4-1.8,1.5-3,1.7-3.9,2.3-8.5,1.5-12.6,2.9-1.9.1-3.8.2-5.6.4.1,2.1,2.9,2.1,3.6,4.3-5.2-.4-8.7,3.5-13.3,3.8-1.1.9-2.4,1.5-3.5,2.4-2.4,1.9-5.6,1.9-7.6,4.6-4.9,6.6-12.6,7.8-20,9.6v-.2c-.2.4-.5.8-.7,1.1-5.2,6.2-10.7,12.1-17.1,17.1-.3.7-.7,1.1-1.5,1.1h0v-.2Z"/>
    <path class="st5" d="M212.2,147.5c1.9-.1,3.8-.2,5.6-.4,3.4-4.4,8.3-2.4,12.6-2.9,1.2-.2,2.9-.2,3-1.7.1-1.8-2.4-.6-3.7-2.4,6.6-.5,12.7-1,18.7-1.5h.3c4.9-.2,9.7,1.7,14.7,1.1.2-2.8-2.8-6.4,3.8-7,4.2-.4,9.5-2.2,13-5.8,1.2-1.2,3.4-2.6,2.9-4.3-.4-1.5-2.8-1.7-4.6-2.1-7.7-1.8-15.5-3.7-23.2-5.5-.3,0-.7-.3-1-.4,1,3.3-1.4,3.1-3.2,2.7-4-.8-8-.2-11.8.2-4.3.4-8.5,1.1-12.7-.2-8.6,1.5-16.9,4.1-24.8,7.6-7,3.1-7.7,4.8-7.1,12.7,0,.6-1.2,1.3-1.8,1.9-2.7,3.6-6.2,6.1-10.3,7.7-4.9,7.8-10.3,15.3-11.4,24.9,7.3-1.8,15.1-3,20-9.6,2-2.7,5.3-2.7,7.6-4.6,1.1-.8,2.4-1.5,3.5-2.4-.5-3.7,4.2-2.9,4.8-5.8.5-2.7,2.7-2.8,4.9-2.4l.2.2Z"/>
    <path class="st2" d="M158.9,406.1c-3.1-2.2-5.8-5-10-1.4-1.5,1.3-4.4.8-4.2-2.3.2-3.4-1.8-3.7-4.2-3.7s-5.7.6-8.3,2.1c-3.3,1.9-5.8,1.6-7.1-2.3-1-3-3.2-4.1-6.1-4.5-3.7-.5-7.8,0-10.1-4.1-.2-.4-1.2-.8-1.7-.6-4.9,1.7-8.9-.3-13.1-2.5-2.7-1.4-5.7-.1-8.3,1-6.1,2.7-9.2,2.1-13.4-3.1-3-3.7-6.2-4.5-10.4-2-6.5,3.8-12.5,8.2-18.3,13-3.4,2.9-7.2,3.3-10.8.5-2.5-1.9-3.8-.2-5.2,1.2-3,3-5.3,6.8-9.9,7.8,6.3-.5,12.2,1.4,18.1,3,2.5-5.2,7.6-5.4,12.3-6.3,14.6-.3,29.3-1.1,43,5.7,2.6,1.3,3.6,2.3,1.2,4.6-1.6,1.6-2.8,3.5-3.3,5.7-.7,2.9-.5,5.5,3.1,6.3,3.2.7,4.6,3.1,5.8,5.8s1.5,2.6,3.3.7c2.1-2.3,4.7-4.3,7.1-6.4-1.1.2-2.2.3-3.3.5-2.5.5-5.2,1.5-5.8-2.5-.5-3.8,2.1-3.9,4.7-4.4,6-1,12.1-1,17.8-3.3,1.4-.6,2.9-.6,3.8.9,1,1.5.8,3.1-.6,4.3-1.2,1.1-2.4,2.1-2.4,3.9,2.5-1,4.2-2.8,6-4.8v-.9c-.7-3.1-1-5.9,3.1-7.2,6.3-1.9,8.8-1.5,11.1,2.5,1.2,2.1,2.8,3.5,5.4,2.3-2.8-5-1.1-8.2,4.4-8.4,2.2,0,4.5,0,6.6-.9l-.3-.2Z"/>
    <path class="st5" d="M148,415.4c-2.6,1.2-4.2-.2-5.4-2.3-2.3-4-4.8-4.4-11.1-2.5-4.1,1.3-3.8,4-3.1,7.2v.9c13.6,7,26.3,15.7,39,24.2,2.3,1.5,4.5,3.1,6.6,4.8,2.2,1.8,5.3,3.4,2.3,7.2-.7.9-.6,2.4,1.4,3.2,13,5.7,16.6,18.7,8.6,30.2-.4.6-.9,1.2-2,2.7,9.1-3.4,12.5-10.3,16-17.6,2.5,6.8,2.5,13.7.3,20.5-1,3-1.2,5.4-.2,8.6,2,6.4-.9,12.1-4.8,17.2,3.8-.6,6-2.2,7.4-7,1.7-5.6,4.3-10.1,8.6-14.3,7.3-7.1,7.1-16.3,3.8-25.4-1.5.3-3.2.3-3.9,2.2-.3.9-1.8,1.9-2,.9-.8-4.4-5.8-7.6-4.2-12.2,1.1-3.2-.6-4-2.2-5.3-2.5-2.1-5.8-3.4-7.1-6.7-.8-2.2-2.4-2.9-4.4-3.7-4.3-1.6-7.8-4.2-8-9.4-11.9-7.9-24.8-14-35.8-23.4h.2Z"/>
    <path class="st2" d="M12.3,405.1c-.6-3.1,1.9-4.9,3-7.3,1.8-3.8-2.2-12.7-6.3-13.4-2.4-.5-2.9,1.1-2.1,2.9,2.1,4.7-.8,5.9-4.5,6.7-3,.7-6,.4-9.1.5-2.5.1-5.1-.6-6.8,2.3-1,1.7-2.5.2-3.8-.1-4.3-1-8.8-3.8-11.9,2.4-1,1.9-3.2.5-4.8,0-4.3-1.3-8.9-3.6-10.4,3.5,0,.5-.9,1.1-1.4,1.1-6.1.5-8.1,6.4-12.3,9.3-.6.4-1,1.7-1,2.6,0,3.7-2.2,6-4.8,7.8-5.8,3.8-8.8,9.3-10.7,15.7-.8,2.8.6,3.5,3,3.2,1.6-.2,3.1-2.2,4.7-.2,2-2.7,4.4-5.2,5.9-8.1,3-6,8-9.3,14.1-11.3,10.4-3.4,20.9-6.8,31.7-9.1,9.3-1.9,18.3-5.5,27.4-8.4h.1Z"/>
    <path class="st5" d="M64.1,410.3c11.8,8.5,23.5,16.9,35.9,24.5,5.5,3.4,6.3,9.4,6.9,15,.6,5.8-2.5,9.4-8.3,11.3,5.2-8.6,5.2-8.8-1.8-16.9-1-1.2-2.1-2.4-2.9-3.8-1.1-1.8-2.7-2-4.6-1.7-2.2.3-1.4,2.2-1.7,3.4-1,3.9-.3,8-1.8,11.8,0-.6,0-1.3,0-1.9-.2-1.2-.7-2.2-2-2.3-.4,0-1.1.2-1.2.5-.6,1.2.3,2.1,1,2.9.5.7,1.3.8,2.1.8-.2,11-4.1,20.9-10.7,29.5-3.2,4.1-5.2,4.6-8.9,3.5,1.9-1.8,4-3.5,5.8-5.5,2.8-3.2,5.8-7.3,4.7-11-1.3-4.6-2.6-8.7-.5-13.5-3.8,4.2-7.8,6.9-13.8,5.4,2.3-1.7,4.3-3.3,4.9-5.7,2.5-9,6.2-18.2-2.8-26.1-.7-.6-1-1.6-1.4-2.5,1.5.8,3.3,2.1,4.6.2,1-1.4-.8-2.5-1.8-3.4-1.5-1.5-3.1-2.4-4.4.3-1.2-2.7-3.3-4.5-5.9-5.9-6.7-3.7-13.3-7.6-19.9-11.4,2.5-5.2,7.6-5.4,12.3-6.3,5.3,2.8,11.1,5.1,15.9,8.6l.3.2ZM78.7,445.4c-.4,2.8-.6,4.6-.9,6.4-.7.9-.7,1.9-.5,3.1,1.2-.7,1.1-1.7,1.3-2.5.9-1.9.8-3.9,0-7ZM80.5,434.9c.8,1.4,1.2,3.7,2.9,2.9,1.9-.8.3-2.8-.4-4-1.7-2.9-1.7-6.8-5.7-9.8,1.7,4.2,1.5,7.8,3.2,10.9ZM74.2,446.6c1.5,0,2.8-1.7,2.2-3.6-.5-1.7.4-4.6-2.3-4.6s-1.6,2.7-1.6,4.1c.2,1.7-1.4,4.2,1.7,4h0Z"/>
    <path class="st2" d="M373,147.1c-.8,2.4-2.8,1.7-4.4,1.7-6.8-.2-13.7.7-20.5-.7-2.2-.5-4.7-.6-7.1.4-.3,2.5,2.8,1.2,3.3,3.5-6.6.3-13.6-.7-19.2,3.9,1.4.7,2.8.6,4.2.3,4.9-.8,6-.2,5.4,4.5-.3,2.1.9,2.7,2.1,3.9-4.8,3-10.7,2.7-16,5.9,2.8,1.2,5,.3,6.9-.4,13.9-5.1,28.6-7.1,43.1-8.2,10.6-.8,20.6-4.3,31-5.7,3.4-.4,7-1.8,9.8,1.5.6.2,1.4.7,1.8.4,1-.6.2-1.4-.2-1.9-3-3.4-6.9-4.9-11.3-5.3.3,3.6-3,3.7-4.5,3.2-7.8-2.3-14.1,3.3-21.5,3.9-5,.4-10.7,1.8-16.1,3.1-1.7.4-3.5.2-4.2-1.5-.8-1.9-.2-3.7,1.5-5.1,1.6-1.3,3.4-1.5,5.4-1.7,4.8-.6,9.9,1,14.2-.2,7.4-2.1,14.8-2,22.2-2.4-8.5-2.3-17.2-3.1-25.9-3h0Z"/>
    <path class="st2" d="M255.5,115.1c7.7,1.8,15.5,3.7,23.2,5.5,1.7.4,4.1.7,4.6,2.1.5,1.7-1.7,3.1-2.9,4.3-3.5,3.6-8.8,5.3-13,5.8-6.6.6-3.6,4.1-3.8,7,4.3,1,8.3-.7,12.5-.9,1,0,2.4-1.3,2.8-2.3,2.1-5.2,7.4-8,10-12.9.6-1.1,4.9,0,7.6,0-12.5-5.5-25.9-6.9-39.1-8.9-.5,0-1.2.3-1.8.5h-.1Z"/>
    <path class="st5" d="M398.9,150.1c-7.4.4-14.8.2-22.2,2.4-4.3,1.2-9.4-.3-14.2.2-1.9.2-3.8.5-5.4,1.7-1.7,1.4-2.2,3.2-1.5,5.1.7,1.7,2.5,1.9,4.2,1.5,5.3-1.3,11.1-2.7,16.1-3.1,7.4-.6,13.7-6.2,21.5-3.9,1.5.4,4.8.3,4.5-3.2-1-.3-2-.5-3-.8h0Z"/>
    <path class="st2" d="M-49.8,327.7c0-3.6,2.4-5.8,4.2-8.3,4.2-5.7,7-12.6,13.6-16.3,1.5-.8,1.5-2.7,2.1-4.2.9-2.2,2-3.9,4.8-4,1.9,0,3.4-1,4.2-2.7,2.2-4.6,6-7.8,10.1-10.6,3-2.1,4.3-4.6,2.8-8.2-14.8,13.6-28.3,28.3-40.5,44.2-1.9,2.5-3.2,5.4-3.6,8.7.6.8,1.1,1.7,2.3,1.4Z"/>
    <path class="st2" d="M183.8,438.8c.2,5.2,3.7,7.8,8,9.4,2.1.8,3.6,1.5,4.4,3.7,1.2,3.3,4.5,4.7,7.1,6.7,1.6,1.3,3.3,2.1,2.2,5.3-1.6,4.6,3.4,7.8,4.2,12.2.2,1,1.6,0,2-.9.7-1.9,2.4-1.9,3.9-2.2-2.8-10.5-9.8-18-18.1-24.5-4.4-3.4-8.7-7-13.6-9.7h0Z"/>
    <path class="st4" d="M122.5,423.5c0-1.8,1.2-2.8,2.4-3.9,1.4-1.3,1.5-2.8.6-4.3s-2.4-1.5-3.8-.9c-5.7,2.3-11.9,2.3-17.8,3.3-2.7.5-5.3.6-4.7,4.4.6,4,3.2,3,5.8,2.5,1.1-.2,2.2-.3,3.3-.5,1.4.2,1.8-3.6,3.8-.9,3.4,3,7,.7,10.5.3h-.1Z"/>
    <path class="st6" d="M300.4,190.6c2.3-.1,4.6-.5,7,.3,3.7,1.2,5.8-2.5,8.7-3.7,4-1.6,7.6,2.3,11.1-.6.6.9,1.1,1.8,1.7,2.7,1.4-4.9,5.8-6.7,9.4-9.4-8.7,1.6-17.2,3.8-25.6,6.2-1.4.4-2.9,1.2-4.1.5-4.9-2.8-6.7.1-8.1,4h-.1Z"/>
    <path class="st2" d="M-58.8,342.6c3.1-.4,6.2-.8,9.1-2.1,5.9-2.8,6-4.8.7-9.2-1.5,2.2-3,4.2-6.1,2.3-1.8,2.8-2.6,6-3.7,9h0Z"/>
    <path class="st2" d="M226.8,117.3c4.2,1.3,8.4.7,12.7.2,3.9-.4,7.9-.9,11.8-.2,1.8.3,4.2.6,3.2-2.7-9.4-1-18.7,0-27.7,2.6h0Z"/>
    <path class="st2" d="M-79.1,363.6c6.9-.1,12.9-6.4,13.4-13.9-5,4.2-9.1,9.1-13.4,13.9Z"/>
    <path class="st5" d="M-162,493.4c-.3-3-1.4-5.8,1.3-8.8,2.1-2.4-1.6-2.7-3-3.8-2,4.5-2.3,8.8,1.7,12.5h0Z"/>
    <path class="st6" d="M-55.1,333.6c3,1.8,4.6-.1,6.1-2.3-.3-1.2-.5-2.3-.8-3.5-1.2.3-1.7-.6-2.3-1.4-1.6,2.2-2.2,4.7-3,7.3h0Z"/>
    <path class="st2" d="M122.4,423.4c-3.5.4-7.1,2.7-10.5-.3,0,2-.9,4.4,1.3,5.6,2.1,1.2,3.8-.9,5.4-1.9,1.4-.9,3.1-1.6,3.8-3.4h0Z"/>
    <path class="st2" d="M344.2,146.3c9.6,1.2,19.2.9,28.8.8-9.6-1.7-19.2-.9-28.8-.8Z"/>
    <path class="st2" d="M63.2,428.1c1.5.8,3.3,2.1,4.6.2,1-1.4-.8-2.5-1.8-3.4-1.5-1.5-3.1-2.4-4.4.3.2,1.1.6,2.2,1.6,2.8h0Z"/>
    <path class="st2" d="M182.7,147.3c4.1-1.7,7.6-4.2,10.3-7.7-3.9,1.9-8.1,3.6-10.3,7.7Z"/>
    <path class="st2" d="M152.1,191.3c.8,0,1.2-.4,1.5-1.1-.5.4-1,.7-1.5,1.1Z"/>
    <path class="st5" d="M170.7,173.2c.2-.4.5-.8.7-1.1-.2.4-.5.8-.7,1.1Z"/>
    <path class="st4" d="M150.5,269.7c5-.2,7.9-4.4,12.2-6.5-1.3-2.3-5.5-2.8-4.7-5.8.6-2.4,3.7-.7,5.5-1.3-.7-.7-1.4-1.5-2.1-2.2h-2.4c-2,2.2-4.9,3-7.5,3.9-4.2,1.4-2.8,3.2-.7,5.1.8.7,2.2.6,2.8,2.3-3.1.1-4,1.9-3,4.6h-.1Z"/>
    <path class="st4" d="M137.5,288.3c2.9,1.7,5.4,1.1,7.6-1.2,2.1-2.2,4.1-4.4,6.1-6.6,2.5-2.7,1.4-4.1-1.7-4.8-1.8,2.6-4.4,4.4-7.2,5.8-2.9,1.5-4.7,3.5-4.8,6.8h0Z"/>
    <path class="st2" d="M29.3,266.1c-.5,0-1,0-1.4.1-1.1.4-2.1.9-2,2.3,0,.2.3.6.5.7,1.4.3,1.9-.8,2.5-1.8.2-.4.3-.9.4-1.4h0Z"/>
    <path class="st2" d="M158.9,253.8h2.4c2.2-2.2-.2-2.4-1.4-3.2-1.4.7-1.2,1.9-1,3.1h0Z"/>
    <path class="st2" d="M85.8,327.7c2.1.7,3.8.3,4.8-1.8-1.9-.2-3.6.4-4.8,1.8Z"/>
    <path class="st2" d="M91,325.5c1.1,0,1.5-.6,1.5-1.7-1,.1-1.7.4-1.5,1.7Z"/>
    <path class="st6" d="M100.4,354.7c0,8.4,3.7,11.3,11.3,9.4,3.4-.8,7.1-1.9,8.6,3,.5,1.5,1.8,2.2,3.3,2.4,2,.3,4.7-.2,6.1.6,6.8,3.9,13.2,0,19.7-.5,5.4-.4,6.9-3.4,4-8.1-3.7-6-6-6.9-12.7-5.3-3.6.9-7,.4-10.3-1-2.1-.9-3.6-.9-5.4,1.2-2.7,3.2-6.9,2.3-8.8-1.5-.4-.9-.9-1.7-1.1-2.6-1.3-6.3-5.9-3.8-9.5-3.5-3.7.4-4.7,3.4-5.2,6h0Z"/>
    <path class="st6" d="M106.3,342.8c2.7-.2,6.7.5,6.9-4,.2-3.4-2-5.5-5.9-5.5s-7.8,2.4-7.8,6,.9,3.6,6.8,3.5Z"/>
    <path class="st3" d="M172.9,240.6c-2.2-2.6-4.3-1-6.5,0,2.2,2.3,4.3.9,6.5,0Z"/>
    <polygon class="st3" points="190.6 243.1 190.7 242.9 190.6 243.1 190.6 243.1"/>
    <path class="st2" d="M240.1,163.6c-6.5.3-12.9,1.2-18.6,4.7-.9.6-1.7,1.5-2.9,1.4-8.7-.2-14.2,4.5-18.7,11.4-1.8,2.9-6.1,3.3-8,6.5,5.2.8,8.7-2.8,12-5.5,4.1-3.4,8.9-6,13.4-7.3,6.6-1.9,12.4-5.8,19.2-7.2,2.1-.4,3-2.1,3.6-4.1h0Z"/>
    <path class="st2" d="M254.1,213.8c8.6-2.4,17.8-2.7,24.9-9.4,2.5-2.4,7.7-1.7,7.8-6.9-3.6,1.1-7.3,1-10,5.1-1.4,2.2-6.2,2.6-9.6,3.2-5.5,1-9.4,4.2-13.1,7.9h0Z"/>
    <path class="st2" d="M322.9,156.3c-2.4-4.4-5.1-2.2-6.8.3-1.6,2.4-3.6,2.4-5.3,1.6-4.3-2.2-9-1-13.4-2.2.3,1,1,1.6,1.9,1.9,4.6,1.1,9,2.8,13.3,4.7,1.7.8,4.8,2.3,3.8-2.3-.3-1.5.6-2.2,2.4-1.6,2.3.9,3.7,0,4-2.4h.1Z"/>
    <path class="st2" d="M294,156.2c-4.3-2.5-9.2-1.5-13.8-2.1-1-.1-1.8.3-2.1,1.4,5.2,1.9,10.5,1.1,15.9.7h0Z"/>
    <path class="st2" d="M268.1,156.8c-1.4.8-4-1.8-4.6,1.6,1.6-.4,3.6.5,4.6-1.6Z"/>
    <path class="st2" d="M253.1,164.8c.3-1.7-.6-1.7-1.8-1.1,0,.9-.2,1.7-.3,2.6h0c.9-.2,1.7-.5,2-1.5h.1Z"/>
    <path class="st2" d="M273.9,155.6c-1.3-2.3-1.9.2-2.8.4,1,.2,2,.5,2.8-.4Z"/>
    <path class="st2" d="M244.5,163.9c-.4-1-1-1-1.7-.3.4,1,1,1.1,1.7.3Z"/>
    <polygon class="st2" points="160.8 203.7 160.6 203.9 160.8 203.8 160.8 203.7"/>
    <path class="st2" d="M251.1,166.3h0Z"/>
    <path class="st6" d="M114,228.8c-4.6,1.1-6.6,3.4-7.7,7.4,6.1-1.2,12.6.7,17.1-5.1-.5-1-3.4.5-2.7-2,.7-2.9,3.3-2.3,5.7-2.1-.4-2.7-2.1-3.8-4.1-4.4-3.7-1-8-.4-9.8-5.3-.4-1.2-2.3-.7-2.9,1.4-1.3,4.6-3.4,5-7.7,3.3-5-2.1-10.3-2.4-15.7-.1-4.8,2-10.1,2.9-14.6,5.7-2.8,1.8,0,5.1-1.8,7.2,1.1.8,2.4.5,3.1-.4,4.6-5.7,11.6-4.1,17.4-5.9,3.7-1.1,5.2,1.1,4.1,5.3-.3,1.2-1.1,2.2-1.7,3.4-.4.7-.8,1.5,0,2.2.6.5,1.3.3,1.7-.2,1.5-1.8,3.3-1.6,5.2-1.2,1.3.3,1.8-.3,1.6-1.9-.5-6.8,4.6-10.1,12.8-7.2h0Z"/>
    <path class="st5" d="M147.6,238.6c1.5,1.3,2.9,1.8,4.4.6,1-.8.8-2,.4-3-1-2.4-2.9-2.9-5.7-2.3,3.3,1.3,4.5,2.8.9,4.8h0Z"/>
    <path class="st6" d="M237.6,222.3c2-1.9,4.8-1.7,7-2.9-3.4-1.6-5.7-.6-7,2.9Z"/>
    <path class="st5" d="M-71.6,392.8c-1.3.9-2.8,1.5-3.6,2.6-3.3,4.1-6.5,8.3-9.6,12.5-.6.8-1.5,2.1-.3,3,.9.8,1.7-.3,2.4-.8,4.7-3.6,9-7.6,12-12.8.9-1.5,1.4-3.2-.9-4.4h0Z"/>
    <path class="st7" d="M326.2,199.6c-.4-.6-1.1-.8-1.5-.4-.6.6.3.9.5,1.4.3-.3.7-.6,1-.9h0Z"/>
    <path class="st2" d="M212.2,147.5c-2.2-.4-4.3-.3-4.9,2.4-.6,2.9-5.3,2.1-4.8,5.8,4.7-.3,8.1-4.2,13.3-3.8-.8-2.2-3.5-2.2-3.6-4.3h0Z"/>
    <path class="st2" d="M230.5,144.3c-4.3.5-9.2-1.5-12.6,2.9,4.1-1.4,8.7-.5,12.6-2.9Z"/>
    <polygon class="st2" points="248.8 138.7 248.5 138.7 248.7 138.9 248.8 138.7"/>
    <path class="st2" d="M77.3,424c1.7,4.2,1.5,7.8,3.2,10.9.8,1.4,1.2,3.7,2.9,2.9,1.9-.8.3-2.8-.4-4-1.7-2.9-1.7-6.8-5.7-9.8Z"/>
    <path class="st2" d="M72.4,442.6c.2,1.7-1.4,4.2,1.7,4,1.5,0,2.8-1.7,2.2-3.6-.5-1.7.4-4.6-2.3-4.6s-1.6,2.7-1.6,4.1h0Z"/>
    <path class="st2" d="M85.9,453.9c0-.6,0-1.3,0-1.9-.2-1.2-.7-2.2-2-2.3-.4,0-1.1.2-1.2.5-.6,1.2.3,2.1,1,2.9.5.7,1.3.8,2.1.8h0Z"/>
    <path class="st2" d="M78.5,452.3c.9-1.9.8-3.9,0-7-.4,2.8-.6,4.6-.9,6.4.3.2.5.4.7.6h.1Z"/>
    <path class="st2" d="M77.8,451.8c-.7.9-.7,1.9-.5,3.1,1.2-.7,1.1-1.7,1.3-2.5-.2-.2-.5-.4-.7-.6h-.1Z"/>
  </g>
</svg>