<?xml version="1.0" encoding="UTF-8"?>
<svg xmlns="http://www.w3.org/2000/svg" version="1.1" viewBox="0 0 434.1 133.7">
  <defs>
    <style>
      .cls-1 {
        fill: #206c60;
      }
    </style>
  </defs>
  <!-- Generator: Adobe Illustrator 28.6.0, SVG Export Plug-In . SVG Version: 1.2.0 Build 709)  -->
  <g>
    <g id="Capa_1">
      <g>
        <path class="cls-1" d="M55,4v18.2h-17.3v59.1c2.8,3.4-3.2,5.4,0,8.6,0,.3,0,.7,0,1v6.5c.8,3.3.8,5.3-1.2,7.3,0,0,2,0,1.2.9v26.2h-18.4V54.9c0-.3,0-.7,0-1,1.2-1.1,1.2-3.1,0-5.8v-25.9H2V4h53Z"/>
        <path class="cls-1" d="M114.1,80.7c0,17.9-8.8,26.9-26.5,26.9-17.6,0-26.4-9-26.4-26.9v-11.2c0-.2,0-.5.1-.8,3.2-2,1.2-2,.2-4.2,0-.3-.1-.6-.3-1V3.8h18.4v30c0,.3-.1.7-.2,1-.9,1.9-.9,3.9.2,5.3v40.6c0,5.8,2.7,8.7,8,8.7s8.1-2.9,8.1-8.7v-28.9c0-.3,0-.7,0-1,2.8-2-1.2-4,0-6.4V3.8h18.4v76.9Z"/>
        <path class="cls-1" d="M174.6,106.8c0,17.9-8.8,26.9-26.5,26.9-17.6,0-26.4-9-26.4-26.9V28.6c0-17.9,8.8-26.8,26.4-26.8s26.5,8.9,26.5,26.8v31.3h-18.4v-13.5c-5.6-1.6,8.4-1.6.4-4.3-.3-.4-.4-.7-.4-1.1v-12.5c0-5.7-2.7-8.6-8-8.7h-.1c-5.3,0-7.9,2.9-7.9,8.7v43.4c0,.4,0,.7,0,1.1-1.5,1.6-1.5,3.6,0,5.3v28.3c0,5.8,2.7,8.7,8,8.7s8.1-2.9,8.1-8.7v-20.8h18.4v20.8Z"/>
        <path class="cls-1" d="M234.5,106.8c0,17.9-8.8,26.9-26.5,26.9-17.6,0-26.4-9-26.4-26.9V3.8h18.4v16.9c-3.4,2,.6,4,0,5.3,0,.3,0,.6,0,.9v75.5c0,.3,0,.5-.1.8,2.7,1.5-7.3,1.5,0,3.5,0,.5,0,.9,0,1.4.4,4.9,3.1,7.3,8,7.3s8.1-2.9,8.1-8.7v-29c0-.3,0-.7,0-1q.5-2,.3-4c-.3-.4-.3-.8-.3-1.1V3.8h18.4v103Z"/>
        <path class="cls-1" d="M275.5,69.4l-16.3-27.7v40.7c0,.4,0,.7,0,1.1-.6,1.4-.6,3.4,0,5.4v42.8h-17.8V3.9h14.5s2,3.4,4.8,8c.2.3.3.5.3.8-2.5,2.1,3.5,2.1,2.1,3.3.2.3.3.6.5.9,5.5,9.2,11.8,20,11.8,20l19.5-33h14.5v127.8h-17.8v-5c-5.2-1.9,8.8-1.9.2-4.2-.2-.2-.2-.5-.2-.7v-37.3q.8-1.7.4-4.2c-.3-.4-.4-.8-.4-1.2v-37.4l-16.3,27.7Z"/>
        <path class="cls-1" d="M352.4,74.7s0-.3,0-.9c4.2-3-1.8-3,0-4v-15.6c0-.5,0-.7,0-2.4,0-.3,0-.5,0-.8-.7-4.2-3.3-6.3-7.8-6.3h-.1c-3.7,0-6.2,1.5-7.3,4.3-.2.4-.3.8-.4,1.3-4,2.4,2,2.4-.5,3.6.2.3.2.7.2,1.2v4.8h-18.4v-6.4c0-17.9,8.8-26.8,26.5-26.8s26.4,8.9,26.4,26.8v78.1h-16.5l-1.3-7.9c-3.7,6.6-9.2,9.9-16.5,10-6,0-10.5-2.3-13.6-6.8-3.1-4.5-4.6-10.1-4.6-16.6,0-21.5,11.4-33.4,34.1-35.6ZM352.4,92.2c-8.1,2-13.1,5.7-14.9,11.1-.1.4-.2.8-.4,1.2q-.5,2.3-.5,3.8c0,.4.1.7.1,1,.1,4.9,1.4,7.3,3.7,7.3,7.9-.6,11.9-6.5,11.9-17.7v-6.8ZM370.8.3l-50.9,6.9v12.3h50.9V.3Z"/>
        <path class="cls-1" d="M379.1,3.8h15.2s1.2,2.2,3.1,5.5l.4.7c-3.1,4.8,6.9.8,2.5,4.5.2.3.4.6.6.8,5.8,10.3,13.4,23.6,13.4,23.6V3.8h17.8v84.3c0,.3,0,.7,0,1q-1.3,1.7,0,3.1c0,.3,0,.7,0,1v38.4h-17.8v-59.4s-.4-.7-1.1-2-.4-.7-.5-1c6-4.4-6-.4-2.3-4l-.4-.8c-5.2-9.3-13-23.4-13-23.4v78.1c0,.3,0,.5-.1.8-10.1,3,5.9,3,.1,4.2v7.6h-17.8V3.8Z"/>
        <path class="cls-1" d="M114.1,121.2l-10.3-10.3-8.1,8.1-8.1-8.1-8.1,8.1-.8-.8c-.3-.3-.6-.6-.9-.9-1.3-.4-3.3-2.4-3.5-3.5l-.6-.6-2.3-2.3-2.1,2.1c-.2.2-.4.4-.5.6,1.7,3.3-4.3,1.3-4.4,4.4-.2.2-.4.4-.6.6-1.5,1.5-2.7,2.7-2.7,2.7l10.3,10.3,8.1-8.1,8.1,8.1,8.1-8.1,8.1,8.1s1.5-1.5,3.3-3.3c.2-.2.4-.4.6-.7.9-2.8,2.9-4.8,4.9-4.8.3-.3.6-.6.8-.8l.8-.8Z"/>
      </g>
    </g>
  </g>
</svg>